<svg id="visual" viewBox="0 0 900 600" width="900" height="600" xmlns="http://www.w3.org/2000/svg" version="1.1">
    <rect x="0" y="0" width="900" height="600" fill="#ded8ff"></rect>
    <path d="M0 197L10.7 228.7C21.3 260.3 42.7 323.7 64.2 376.5C85.7 429.3 107.3 471.7 128.8 474.3C150.3 477 171.7 440 193 404.7C214.3 369.3 235.7 335.7 257 270.5C278.3 205.3 299.7 108.7 321.2 157.7C342.7 206.7 364.3 401.3 385.8 417.8C407.3 434.3 428.7 272.7 450 175.8C471.3 79 492.7 47 514.2 58.3C535.7 69.7 557.3 124.3 578.8 137.2C600.3 150 621.7 121 643 143.3C664.3 165.7 685.7 239.3 707 262.7C728.3 286 749.7 259 771.2 208.5C792.7 158 814.3 84 835.8 87.5C857.3 91 878.7 172 889.3 212.5L900 253"
          fill="none" stroke-linecap="round" stroke-linejoin="miter" stroke="#b8adff" stroke-width="40"></path>
</svg>