<svg id="visual" viewBox="0 0 900 600" width="900" height="600" xmlns="http://www.w3.org/2000/svg" version="1.1">
    <rect x="0" y="0" width="900" height="600" fill="#6600FF"></rect>
    <path d="M0 352L113 384L225 270L338 208L450 281L563 331L675 342L788 167L900 289L900 601L788 601L675 601L563 601L450 601L338 601L225 601L113 601L0 601Z" fill="#715df2"></path>
    <path d="M0 174L113 254L225 177L338 325L450 207L563 191L675 211L788 352L900 253L900 601L788 601L675 601L563 601L450 601L338 601L225 601L113 601L0 601Z" fill="#6f57f4"></path>
    <path d="M0 401L113 199L225 248L338 370L450 436L563 457L675 225L788 291L900 435L900 601L788 601L675 601L563 601L450 601L338 601L225 601L113 601L0 601Z" fill="#6d51f6"></path>
    <path d="M0 251L113 425L225 458L338 457L450 476L563 434L675 438L788 275L900 290L900 601L788 601L675 601L563 601L450 601L338 601L225 601L113 601L0 601Z" fill="#6b4bf8"></path>
    <path d="M0 391L113 395L225 376L338 291L450 317L563 483L675 437L788 346L900 443L900 601L788 601L675 601L563 601L450 601L338 601L225 601L113 601L0 601Z" fill="#6a44f9"></path>
    <path d="M0 467L113 476L225 435L338 485L450 440L563 374L675 457L788 376L900 489L900 601L788 601L675 601L563 601L450 601L338 601L225 601L113 601L0 601Z" fill="#683cfb"></path>
    <path d="M0 517L113 439L225 430L338 462L450 392L563 395L675 393L788 490L900 506L900 601L788 601L675 601L563 601L450 601L338 601L225 601L113 601L0 601Z" fill="#6733fc"></path>
    <path d="M0 449L113 445L225 465L338 536L450 465L563 537L675 467L788 478L900 468L900 601L788 601L675 601L563 601L450 601L338 601L225 601L113 601L0 601Z" fill="#6729fd"></path>
    <path d="M0 531L113 520L225 552L338 501L450 492L563 485L675 505L788 497L900 559L900 601L788 601L675 601L563 601L450 601L338 601L225 601L113 601L0 601Z" fill="#661bfe"></path>
    <path d="M0 537L113 528L225 528L338 537L450 519L563 525L675 537L788 518L900 555L900 601L788 601L675 601L563 601L450 601L338 601L225 601L113 601L0 601Z" fill="#6600ff"></path>
</svg>