<svg id="visual" viewBox="0 0 900 600" width="900" height="600" xmlns="http://www.w3.org/2000/svg" version="1.1">
    <g stroke-width="1" stroke-linejoin="bevel">
        <path d="M457.9 290L423.1 360L456.9 363Z" fill="#e9e9e9" stroke="#e9e9e9"></path>
        <path d="M366.3 346L377.3 356L423.1 360Z" fill="#cfcfcf" stroke="#cfcfcf"></path>
        <path d="M423.1 360L441.9 408L456.9 363Z" fill="#e0e0e0" stroke="#e0e0e0"></path>
        <path d="M457.9 290L366.3 346L423.1 360Z" fill="#d3d3d3" stroke="#d3d3d3"></path>
        <path d="M380.3 429L441.9 408L423.1 360Z" fill="#c2c2c2" stroke="#c2c2c2"></path>
        <path d="M457.9 290L357.1 282L366.3 346Z" fill="#c6c6c6" stroke="#c6c6c6"></path>
        <path d="M457.9 290L401.1 222L357.1 282Z" fill="#e9e9e9" stroke="#e9e9e9"></path>
        <path d="M366.3 346L380.3 429L377.3 356Z" fill="#e0e0e0" stroke="#e0e0e0"></path>
        <path d="M377.3 356L380.3 429L423.1 360Z" fill="#e5e5e5" stroke="#e5e5e5"></path>
        <path d="M380.3 429L391.1 442L441.9 408Z" fill="#d3d3d3" stroke="#d3d3d3"></path>
        <path d="M602.7 345L521.9 207L457.9 290Z" fill="#e5e5e5" stroke="#e5e5e5"></path>
        <path d="M457.9 290L521.9 207L401.1 222Z" fill="#d3d3d3" stroke="#d3d3d3"></path>
        <path d="M602.7 345L457.9 290L456.9 363Z" fill="#c2c2c2" stroke="#c2c2c2"></path>
        <path d="M315.3 248L301.5 298L357.1 282Z" fill="#e9e9e9" stroke="#e9e9e9"></path>
        <path d="M357.1 282L301.5 298L366.3 346Z" fill="#bebebe" stroke="#bebebe"></path>
        <path d="M366.3 346L290.5 322L380.3 429Z" fill="#cfcfcf" stroke="#cfcfcf"></path>
        <path d="M401.1 222L315.3 248L357.1 282Z" fill="#dcdcdc" stroke="#dcdcdc"></path>
        <path d="M232.5 247L290.5 322L301.5 298Z" fill="#d3d3d3" stroke="#d3d3d3"></path>
        <path d="M301.5 298L290.5 322L366.3 346Z" fill="#c2c2c2" stroke="#c2c2c2"></path>
        <path d="M380.3 429L353.1 498L391.1 442Z" fill="#e5e5e5" stroke="#e5e5e5"></path>
        <path d="M524.7 476L456.9 363L441.9 408Z" fill="#cbcbcb" stroke="#cbcbcb"></path>
        <path d="M610.7 392L602.7 345L456.9 363Z" fill="#c6c6c6" stroke="#c6c6c6"></path>
        <path d="M391.1 442L524.7 476L441.9 408Z" fill="#d7d7d7" stroke="#d7d7d7"></path>
        <path d="M524.7 476L610.7 392L456.9 363Z" fill="#d7d7d7" stroke="#d7d7d7"></path>
        <path d="M606.7 222L545.7 176L521.9 207Z" fill="#cfcfcf" stroke="#cfcfcf"></path>
        <path d="M521.9 207L418.1 127L401.1 222Z" fill="#dcdcdc" stroke="#dcdcdc"></path>
        <path d="M401.1 222L331.3 157L315.3 248Z" fill="#c2c2c2" stroke="#c2c2c2"></path>
        <path d="M216.6 475L353.1 498L380.3 429Z" fill="#bebebe" stroke="#bebebe"></path>
        <path d="M391.1 442L479.9 581L524.7 476Z" fill="#cbcbcb" stroke="#cbcbcb"></path>
        <path d="M631.5 265L606.7 222L602.7 345Z" fill="#cfcfcf" stroke="#cfcfcf"></path>
        <path d="M602.7 345L606.7 222L521.9 207Z" fill="#e5e5e5" stroke="#e5e5e5"></path>
        <path d="M703.5 287L631.5 265L602.7 345Z" fill="#e0e0e0" stroke="#e0e0e0"></path>
        <path d="M440.9 115L418.1 127L521.9 207Z" fill="#dcdcdc" stroke="#dcdcdc"></path>
        <path d="M418.1 127L331.3 157L401.1 222Z" fill="#d7d7d7" stroke="#d7d7d7"></path>
        <path d="M315.3 248L232.5 247L301.5 298Z" fill="#c6c6c6" stroke="#c6c6c6"></path>
        <path d="M524.7 476L633.5 408L610.7 392Z" fill="#d7d7d7" stroke="#d7d7d7"></path>
        <path d="M610.7 392L633.5 408L602.7 345Z" fill="#e9e9e9" stroke="#e9e9e9"></path>
        <path d="M545.7 176L440.9 115L521.9 207Z" fill="#e5e5e5" stroke="#e5e5e5"></path>
        <path d="M263.5 125L268.5 131L304.3 25Z" fill="#c6c6c6" stroke="#c6c6c6"></path>
        <path d="M268.5 131L232.5 247L315.3 248Z" fill="#e0e0e0" stroke="#e0e0e0"></path>
        <path d="M290.5 322L216.6 475L380.3 429Z" fill="#d7d7d7" stroke="#d7d7d7"></path>
        <path d="M167.6 197L211.6 253L232.5 247Z" fill="#bebebe" stroke="#bebebe"></path>
        <path d="M232.5 247L211.6 253L290.5 322Z" fill="#c2c2c2" stroke="#c2c2c2"></path>
        <path d="M583.7 28L471.9 80L545.7 176Z" fill="#c2c2c2" stroke="#c2c2c2"></path>
        <path d="M545.7 176L471.9 80L440.9 115Z" fill="#d3d3d3" stroke="#d3d3d3"></path>
        <path d="M440.9 115L383.1 42L418.1 127Z" fill="#bebebe" stroke="#bebebe"></path>
        <path d="M373.3 600L383.3 575L291.5 600Z" fill="#dcdcdc" stroke="#dcdcdc"></path>
        <path d="M353.1 498L383.3 575L391.1 442Z" fill="#cfcfcf" stroke="#cfcfcf"></path>
        <path d="M524.7 476L614.5 526L633.5 408Z" fill="#d7d7d7" stroke="#d7d7d7"></path>
        <path d="M383.3 575L479.9 581L391.1 442Z" fill="#c2c2c2" stroke="#c2c2c2"></path>
        <path d="M268.5 131L331.3 157L304.3 25Z" fill="#cfcfcf" stroke="#cfcfcf"></path>
        <path d="M331.3 157L268.5 131L315.3 248Z" fill="#cfcfcf" stroke="#cfcfcf"></path>
        <path d="M553.7 580L614.5 526L524.7 476Z" fill="#d7d7d7" stroke="#d7d7d7"></path>
        <path d="M706.5 408L602.7 345L633.5 408Z" fill="#dcdcdc" stroke="#dcdcdc"></path>
        <path d="M706.5 408L703.5 287L602.7 345Z" fill="#d7d7d7" stroke="#d7d7d7"></path>
        <path d="M631.5 265L687.4 224L606.7 222Z" fill="#e9e9e9" stroke="#e9e9e9"></path>
        <path d="M606.7 222L684.5 181L545.7 176Z" fill="#cbcbcb" stroke="#cbcbcb"></path>
        <path d="M703.5 287L687.4 224L631.5 265Z" fill="#bebebe" stroke="#bebebe"></path>
        <path d="M383.1 42L331.3 157L418.1 127Z" fill="#cfcfcf" stroke="#cfcfcf"></path>
        <path d="M268.5 131L167.6 197L232.5 247Z" fill="#dcdcdc" stroke="#dcdcdc"></path>
        <path d="M176.6 397L216.6 475L290.5 322Z" fill="#e9e9e9" stroke="#e9e9e9"></path>
        <path d="M383.3 575L450.1 600L479.9 581Z" fill="#e9e9e9" stroke="#e9e9e9"></path>
        <path d="M479.9 581L553.7 580L524.7 476Z" fill="#d7d7d7" stroke="#d7d7d7"></path>
        <path d="M211.6 253L176.6 397L290.5 322Z" fill="#bebebe" stroke="#bebebe"></path>
        <path d="M722.4 480L706.5 408L633.5 408Z" fill="#cfcfcf" stroke="#cfcfcf"></path>
        <path d="M523.9 600L553.7 580L479.9 581Z" fill="#bebebe" stroke="#bebebe"></path>
        <path d="M739.4 270L684.5 181L687.4 224Z" fill="#d3d3d3" stroke="#d3d3d3"></path>
        <path d="M687.4 224L684.5 181L606.7 222Z" fill="#e0e0e0" stroke="#e0e0e0"></path>
        <path d="M383.3 575L373.3 600L450.1 600Z" fill="#bebebe" stroke="#bebebe"></path>
        <path d="M291.5 600L383.3 575L353.1 498Z" fill="#d7d7d7" stroke="#d7d7d7"></path>
        <path d="M450.1 600L523.9 600L479.9 581Z" fill="#e5e5e5" stroke="#e5e5e5"></path>
        <path d="M523.9 600L524.7 600L553.7 580Z" fill="#cbcbcb" stroke="#cbcbcb"></path>
        <path d="M471.9 80L383.1 42L440.9 115Z" fill="#c2c2c2" stroke="#c2c2c2"></path>
        <path d="M200.6 524L255.5 552L216.6 475Z" fill="#e0e0e0" stroke="#e0e0e0"></path>
        <path d="M216.6 475L255.5 552L353.1 498Z" fill="#c6c6c6" stroke="#c6c6c6"></path>
        <path d="M706.5 408L739.4 270L703.5 287Z" fill="#d3d3d3" stroke="#d3d3d3"></path>
        <path d="M703.5 287L739.4 270L687.4 224Z" fill="#d7d7d7" stroke="#d7d7d7"></path>
        <path d="M722.4 480L730.4 424L706.5 408Z" fill="#c6c6c6" stroke="#c6c6c6"></path>
        <path d="M706.5 408L805.2 416L739.4 270Z" fill="#bebebe" stroke="#bebebe"></path>
        <path d="M683.4 518L633.5 408L614.5 526Z" fill="#dcdcdc" stroke="#dcdcdc"></path>
        <path d="M263.5 125L167.6 197L268.5 131Z" fill="#bebebe" stroke="#bebebe"></path>
        <path d="M211.6 253L136.6 308L176.6 397Z" fill="#cbcbcb" stroke="#cbcbcb"></path>
        <path d="M176.6 397L188.5 495L216.6 475Z" fill="#bebebe" stroke="#bebebe"></path>
        <path d="M126.8 288L136.6 308L211.6 253Z" fill="#e9e9e9" stroke="#e9e9e9"></path>
        <path d="M176.6 397L83.8 434L188.5 495Z" fill="#cfcfcf" stroke="#cfcfcf"></path>
        <path d="M642.5 600L683.4 518L614.5 526Z" fill="#c6c6c6" stroke="#c6c6c6"></path>
        <path d="M642.5 600L614.5 526L553.7 580Z" fill="#dcdcdc" stroke="#dcdcdc"></path>
        <path d="M188.5 495L200.6 524L216.6 475Z" fill="#cbcbcb" stroke="#cbcbcb"></path>
        <path d="M182.6 600L291.5 600L255.5 552Z" fill="#d3d3d3" stroke="#d3d3d3"></path>
        <path d="M255.5 552L291.5 600L353.1 498Z" fill="#e0e0e0" stroke="#e0e0e0"></path>
        <path d="M167.6 197L126.8 288L211.6 253Z" fill="#c2c2c2" stroke="#c2c2c2"></path>
        <path d="M58.8 375L83.8 434L176.6 397Z" fill="#cfcfcf" stroke="#cfcfcf"></path>
        <path d="M683.4 518L722.4 480L633.5 408Z" fill="#d3d3d3" stroke="#d3d3d3"></path>
        <path d="M848.2 194L698.4 124L684.5 181Z" fill="#e9e9e9" stroke="#e9e9e9"></path>
        <path d="M684.5 181L698.4 124L545.7 176Z" fill="#e9e9e9" stroke="#e9e9e9"></path>
        <path d="M471.9 80L499.9 0L383.1 42Z" fill="#d3d3d3" stroke="#d3d3d3"></path>
        <path d="M636.5 31L583.7 28L545.7 176Z" fill="#e0e0e0" stroke="#e0e0e0"></path>
        <path d="M523.7 0L499.9 0L471.9 80Z" fill="#e5e5e5" stroke="#e5e5e5"></path>
        <path d="M383.1 42L304.3 25L331.3 157Z" fill="#c2c2c2" stroke="#c2c2c2"></path>
        <path d="M263.5 125L122.6 113L167.6 197Z" fill="#c6c6c6" stroke="#c6c6c6"></path>
        <path d="M356.1 0L304.3 25L383.1 42Z" fill="#c6c6c6" stroke="#c6c6c6"></path>
        <path d="M583.7 28L523.7 0L471.9 80Z" fill="#e0e0e0" stroke="#e0e0e0"></path>
        <path d="M499.9 0L356.1 0L383.1 42Z" fill="#e5e5e5" stroke="#e5e5e5"></path>
        <path d="M524.7 600L642.5 600L553.7 580Z" fill="#e0e0e0" stroke="#e0e0e0"></path>
        <path d="M817.2 518L827.2 458L722.4 480Z" fill="#d7d7d7" stroke="#d7d7d7"></path>
        <path d="M698.4 124L636.5 31L545.7 176Z" fill="#c2c2c2" stroke="#c2c2c2"></path>
        <path d="M583.7 28L611.5 0L523.7 0Z" fill="#cbcbcb" stroke="#cbcbcb"></path>
        <path d="M122.6 113L99.8 223L167.6 197Z" fill="#d3d3d3" stroke="#d3d3d3"></path>
        <path d="M167.6 197L99.8 223L126.8 288Z" fill="#e9e9e9" stroke="#e9e9e9"></path>
        <path d="M58.8 375L176.6 397L136.6 308Z" fill="#c6c6c6" stroke="#c6c6c6"></path>
        <path d="M356.1 0L285.3 0L304.3 25Z" fill="#cbcbcb" stroke="#cbcbcb"></path>
        <path d="M304.3 25L217.6 0L263.5 125Z" fill="#cfcfcf" stroke="#cfcfcf"></path>
        <path d="M636.5 31L611.5 0L583.7 28Z" fill="#e9e9e9" stroke="#e9e9e9"></path>
        <path d="M827.2 458L805.2 416L722.4 480Z" fill="#d3d3d3" stroke="#d3d3d3"></path>
        <path d="M722.4 480L805.2 416L730.4 424Z" fill="#c6c6c6" stroke="#c6c6c6"></path>
        <path d="M730.4 424L805.2 416L706.5 408Z" fill="#dcdcdc" stroke="#dcdcdc"></path>
        <path d="M785.4 54L684.4 0L698.4 124Z" fill="#d7d7d7" stroke="#d7d7d7"></path>
        <path d="M58.8 375L136.6 308L126.8 288Z" fill="#bebebe" stroke="#bebebe"></path>
        <path d="M68.8 511L182.6 600L200.6 524Z" fill="#e9e9e9" stroke="#e9e9e9"></path>
        <path d="M200.6 524L182.6 600L255.5 552Z" fill="#cbcbcb" stroke="#cbcbcb"></path>
        <path d="M68.8 511L200.6 524L188.5 495Z" fill="#bebebe" stroke="#bebebe"></path>
        <path d="M190.5 0L122.6 113L263.5 125Z" fill="#bebebe" stroke="#bebebe"></path>
        <path d="M0 304L58.8 375L126.8 288Z" fill="#bebebe" stroke="#bebebe"></path>
        <path d="M0 304L126.8 288L0 267Z" fill="#bebebe" stroke="#bebebe"></path>
        <path d="M285.3 0L217.6 0L304.3 25Z" fill="#d7d7d7" stroke="#d7d7d7"></path>
        <path d="M698.4 124L684.4 0L636.5 31Z" fill="#e9e9e9" stroke="#e9e9e9"></path>
        <path d="M636.5 31L684.4 0L611.5 0Z" fill="#cfcfcf" stroke="#cfcfcf"></path>
        <path d="M848.2 194L684.5 181L739.4 270Z" fill="#cbcbcb" stroke="#cbcbcb"></path>
        <path d="M817.2 518L722.4 480L782.4 600Z" fill="#bebebe" stroke="#bebebe"></path>
        <path d="M859.2 250L844.2 242L739.4 270Z" fill="#d3d3d3" stroke="#d3d3d3"></path>
        <path d="M859.2 250L739.4 270L805.2 416Z" fill="#e9e9e9" stroke="#e9e9e9"></path>
        <path d="M217.6 0L190.5 0L263.5 125Z" fill="#e0e0e0" stroke="#e0e0e0"></path>
        <path d="M0 449L68.8 511L83.8 434Z" fill="#dcdcdc" stroke="#dcdcdc"></path>
        <path d="M83.8 434L68.8 511L188.5 495Z" fill="#c6c6c6" stroke="#c6c6c6"></path>
        <path d="M782.4 600L722.4 480L683.4 518Z" fill="#c2c2c2" stroke="#c2c2c2"></path>
        <path d="M0 175L41.8 200L0 89Z" fill="#e0e0e0" stroke="#e0e0e0"></path>
        <path d="M122.6 113L41.8 200L99.8 223Z" fill="#d3d3d3" stroke="#d3d3d3"></path>
        <path d="M58.8 375L0 449L83.8 434Z" fill="#d7d7d7" stroke="#d7d7d7"></path>
        <path d="M900 355L859.2 250L805.2 416Z" fill="#c2c2c2" stroke="#c2c2c2"></path>
        <path d="M844.2 242L848.2 194L739.4 270Z" fill="#bebebe" stroke="#bebebe"></path>
        <path d="M859.2 250L848.2 194L844.2 242Z" fill="#c2c2c2" stroke="#c2c2c2"></path>
        <path d="M642.5 600L782.4 600L683.4 518Z" fill="#dcdcdc" stroke="#dcdcdc"></path>
        <path d="M848.2 194L785.4 54L698.4 124Z" fill="#dcdcdc" stroke="#dcdcdc"></path>
        <path d="M782.4 600L792.2 600L817.2 518Z" fill="#dcdcdc" stroke="#dcdcdc"></path>
        <path d="M0 267L126.8 288L99.8 223Z" fill="#d7d7d7" stroke="#d7d7d7"></path>
        <path d="M0 304L0 364L58.8 375Z" fill="#e9e9e9" stroke="#e9e9e9"></path>
        <path d="M41.8 200L0 267L99.8 223Z" fill="#d3d3d3" stroke="#d3d3d3"></path>
        <path d="M900 405L900 355L805.2 416Z" fill="#d3d3d3" stroke="#d3d3d3"></path>
        <path d="M859.2 250L900 257L848.2 194Z" fill="#bebebe" stroke="#bebebe"></path>
        <path d="M900 405L805.2 416L827.2 458Z" fill="#e0e0e0" stroke="#e0e0e0"></path>
        <path d="M900 405L827.2 458L900 449Z" fill="#e5e5e5" stroke="#e5e5e5"></path>
        <path d="M0 364L0 449L58.8 375Z" fill="#e9e9e9" stroke="#e9e9e9"></path>
        <path d="M900 355L900 257L859.2 250Z" fill="#e5e5e5" stroke="#e5e5e5"></path>
        <path d="M848.2 194L828.2 57L785.4 54Z" fill="#cbcbcb" stroke="#cbcbcb"></path>
        <path d="M190.5 0L113.8 0L122.6 113Z" fill="#c6c6c6" stroke="#c6c6c6"></path>
        <path d="M41.8 200L0 175L0 267Z" fill="#cfcfcf" stroke="#cfcfcf"></path>
        <path d="M900 449L827.2 458L900 538Z" fill="#d3d3d3" stroke="#d3d3d3"></path>
        <path d="M0 89L41.8 200L122.6 113Z" fill="#cbcbcb" stroke="#cbcbcb"></path>
        <path d="M900 115L828.2 57L848.2 194Z" fill="#e5e5e5" stroke="#e5e5e5"></path>
        <path d="M785.4 54L785.2 0L684.4 0Z" fill="#cbcbcb" stroke="#cbcbcb"></path>
        <path d="M828.2 57L785.2 0L785.4 54Z" fill="#cfcfcf" stroke="#cfcfcf"></path>
        <path d="M900 538L827.2 458L817.2 518Z" fill="#d7d7d7" stroke="#d7d7d7"></path>
        <path d="M68.8 511L51.8 600L182.6 600Z" fill="#cfcfcf" stroke="#cfcfcf"></path>
        <path d="M0 508L51.8 600L68.8 511Z" fill="#cbcbcb" stroke="#cbcbcb"></path>
        <path d="M0 449L0 508L68.8 511Z" fill="#d7d7d7" stroke="#d7d7d7"></path>
        <path d="M113.8 0L46.8 34L122.6 113Z" fill="#dcdcdc" stroke="#dcdcdc"></path>
        <path d="M46.8 34L0 89L122.6 113Z" fill="#c6c6c6" stroke="#c6c6c6"></path>
        <path d="M900 257L900 115L848.2 194Z" fill="#d3d3d3" stroke="#d3d3d3"></path>
        <path d="M828.2 57L900 0L785.2 0Z" fill="#cbcbcb" stroke="#cbcbcb"></path>
        <path d="M900 600L900 538L817.2 518Z" fill="#e5e5e5" stroke="#e5e5e5"></path>
        <path d="M0 508L0 600L51.8 600Z" fill="#d3d3d3" stroke="#d3d3d3"></path>
        <path d="M792.2 600L900 600L817.2 518Z" fill="#cfcfcf" stroke="#cfcfcf"></path>
        <path d="M900 115L900 30L828.2 57Z" fill="#cfcfcf" stroke="#cfcfcf"></path>
        <path d="M113.8 0L0 0L46.8 34Z" fill="#cfcfcf" stroke="#cfcfcf"></path>
        <path d="M46.8 34L0 0L0 89Z" fill="#dcdcdc" stroke="#dcdcdc"></path>
        <path d="M900 30L900 0L828.2 57Z" fill="#d3d3d3" stroke="#d3d3d3"></path>
    </g>
</svg>