<svg id="visual" viewBox="0 0 900 600" width="900" height="600" xmlns="http://www.w3.org/2000/svg" version="1.1">
    <rect width="900" height="600" fill="#eeeeee"></rect>
    <g>
        <g transform="translate(727 134)">
            <path d="M0 -26.7L23.1 -13.3L23.1 13.3L0 26.7L-23.1 13.3L-23.1 -13.3Z" fill="none" stroke="#6600FF" stroke-width="1"></path>
        </g>
        <g transform="translate(27 391)">
            <path d="M0 -25L21.7 -12.5L21.7 12.5L0 25L-21.7 12.5L-21.7 -12.5Z" fill="none" stroke="#6600FF" stroke-width="1"></path>
        </g>
        <g transform="translate(371 555)">
            <path d="M0 -24L20.8 -12L20.8 12L0 24L-20.8 12L-20.8 -12Z" stroke="#6600FF" fill="none" stroke-width="1"></path>
        </g>
        <g transform="translate(728 78)">
            <path d="M0 -23L19.9 -11.5L19.9 11.5L0 23L-19.9 11.5L-19.9 -11.5Z" stroke="#6600FF" fill="none" stroke-width="1"></path>
        </g>
        <g transform="translate(75 565)">
            <path d="M0 -24L20.8 -12L20.8 12L0 24L-20.8 12L-20.8 -12Z" stroke="#6600FF" fill="none" stroke-width="1"></path>
        </g>
        <g transform="translate(729 420)">
            <path d="M0 -25L21.7 -12.5L21.7 12.5L0 25L-21.7 12.5L-21.7 -12.5Z" stroke="#6600FF" fill="none" stroke-width="1"></path>
        </g>
        <g transform="translate(347 395)">
            <path d="M0 -24L20.8 -12L20.8 12L0 24L-20.8 12L-20.8 -12Z" stroke="#6600FF" fill="none" stroke-width="1"></path>
        </g>
        <g transform="translate(608 336)">
            <path d="M0 -24L20.8 -12L20.8 12L0 24L-20.8 12L-20.8 -12Z" stroke="#6600FF" fill="none" stroke-width="1"></path>
        </g>
        <g transform="translate(318 281)">
            <path d="M0 -23L19.9 -11.5L19.9 11.5L0 23L-19.9 11.5L-19.9 -11.5Z" stroke="#6600FF" fill="none" stroke-width="1"></path>
        </g>
        <g transform="translate(882 244)">
            <path d="M0 -25L21.7 -12.5L21.7 12.5L0 25L-21.7 12.5L-21.7 -12.5Z" stroke="#6600FF" fill="none" stroke-width="1"></path>
        </g>
        <g transform="translate(45 85)">
            <path d="M0 -25L21.7 -12.5L21.7 12.5L0 25L-21.7 12.5L-21.7 -12.5Z" stroke="#6600FF" fill="none" stroke-width="1"></path>
        </g>
        <g transform="translate(168 497)">
            <path d="M0 -25L21.7 -12.5L21.7 12.5L0 25L-21.7 12.5L-21.7 -12.5Z" stroke="#6600FF" fill="none" stroke-width="1"></path>
        </g>
        <g transform="translate(44 283)">
            <path d="M0 -23L19.9 -11.5L19.9 11.5L0 23L-19.9 11.5L-19.9 -11.5Z" stroke="#6600FF" fill="none" stroke-width="1"></path>
        </g>
        <g transform="translate(622 185)">
            <path d="M0 -24L20.8 -12L20.8 12L0 24L-20.8 12L-20.8 -12Z" stroke="#6600FF" fill="none" stroke-width="1"></path>
        </g>
        <g transform="translate(659 21)">
            <path d="M0 -24L20.8 -12L20.8 12L0 24L-20.8 12L-20.8 -12Z" stroke="#6600FF" fill="none" stroke-width="1"></path>
        </g>
        <g transform="translate(312 114)">
            <path d="M0 -25L21.7 -12.5L21.7 12.5L0 25L-21.7 12.5L-21.7 -12.5Z" stroke="#6600FF" fill="none" stroke-width="1"></path>
        </g>
        <g transform="translate(819 515)">
            <path d="M0 -25L21.7 -12.5L21.7 12.5L0 25L-21.7 12.5L-21.7 -12.5Z" stroke="#6600FF" fill="none" stroke-width="1"></path>
        </g>
        <g transform="translate(106 96)">
            <path d="M0 -23L19.9 -11.5L19.9 11.5L0 23L-19.9 11.5L-19.9 -11.5Z" stroke="#6600FF" fill="none" stroke-width="1"></path>
        </g>
        <g transform="translate(683 484)">
            <path d="M0 -24L20.8 -12L20.8 12L0 24L-20.8 12L-20.8 -12Z" stroke="#6600FF" fill="none" stroke-width="1"></path>
        </g>
        <g transform="translate(678 99)">
            <path d="M0 -23L19.9 -11.5L19.9 11.5L0 23L-19.9 11.5L-19.9 -11.5Z" stroke="#6600FF" fill="none" stroke-width="1"></path>
        </g>
        <g transform="translate(717 256)">
            <path d="M0 -24L20.8 -12L20.8 12L0 24L-20.8 12L-20.8 -12Z" stroke="#6600FF" fill="none" stroke-width="1"></path>
        </g>
        <g transform="translate(876 485)">
            <path d="M0 -25L21.7 -12.5L21.7 12.5L0 25L-21.7 12.5L-21.7 -12.5Z" stroke="#6600FF" fill="none" stroke-width="1"></path>
        </g>
        <g transform="translate(458 388)">
            <path d="M0 -24L20.8 -12L20.8 12L0 24L-20.8 12L-20.8 -12Z" stroke="#6600FF" fill="none" stroke-width="1"></path>
        </g>
        <g transform="translate(184 403)">
            <path d="M0 -25L21.7 -12.5L21.7 12.5L0 25L-21.7 12.5L-21.7 -12.5Z" stroke="#6600FF" fill="none" stroke-width="1"></path>
        </g>
        <g transform="translate(592 435)">
            <path d="M0 -25L21.7 -12.5L21.7 12.5L0 25L-21.7 12.5L-21.7 -12.5Z" stroke="#6600FF" fill="none" stroke-width="1"></path>
        </g>
        <g transform="translate(538 594)">
            <path d="M0 -25L21.7 -12.5L21.7 12.5L0 25L-21.7 12.5L-21.7 -12.5Z" stroke="#6600FF" fill="none" stroke-width="1"></path>
        </g>
        <g transform="translate(733 329)">
            <path d="M0 -24L20.8 -12L20.8 12L0 24L-20.8 12L-20.8 -12Z" stroke="#6600FF" fill="none" stroke-width="1"></path>
        </g>
        <g transform="translate(639 257)">
            <path d="M0 -24L20.8 -12L20.8 12L0 24L-20.8 12L-20.8 -12Z" stroke="#6600FF" fill="none" stroke-width="1"></path>
        </g>
        <g transform="translate(193 186)">
            <path d="M0 -24L20.8 -12L20.8 12L0 24L-20.8 12L-20.8 -12Z" stroke="#6600FF" fill="none" stroke-width="1"></path>
        </g>
        <g transform="translate(454 464)">
            <path d="M0 -23L19.9 -11.5L19.9 11.5L0 23L-19.9 11.5L-19.9 -11.5Z" stroke="#6600FF" fill="none" stroke-width="1"></path>
        </g>
        <g transform="translate(183 341)">
            <path d="M0 -25L21.7 -12.5L21.7 12.5L0 25L-21.7 12.5L-21.7 -12.5Z" stroke="#6600FF" fill="none" stroke-width="1"></path>
        </g>
        <g transform="translate(290 515)">
            <path d="M0 -24L20.8 -12L20.8 12L0 24L-20.8 12L-20.8 -12Z" stroke="#6600FF" fill="none" stroke-width="1"></path>
        </g>
        <g transform="translate(410 4)">
            <path d="M0 -25L21.7 -12.5L21.7 12.5L0 25L-21.7 12.5L-21.7 -12.5Z" stroke="#6600FF" fill="none" stroke-width="1"></path>
        </g>
        <g transform="translate(629 513)">
            <path d="M0 -25L21.7 -12.5L21.7 12.5L0 25L-21.7 12.5L-21.7 -12.5Z" stroke="#6600FF" fill="none" stroke-width="1"></path>
        </g>
        <g transform="translate(392 356)">
            <path d="M0 -25L21.7 -12.5L21.7 12.5L0 25L-21.7 12.5L-21.7 -12.5Z" stroke="#6600FF" fill="none" stroke-width="1"></path>
        </g>
        <g transform="translate(133 8)">
            <path d="M0 -25L21.7 -12.5L21.7 12.5L0 25L-21.7 12.5L-21.7 -12.5Z" stroke="#6600FF" fill="none" stroke-width="1"></path>
        </g>
        <g transform="translate(557 89)">
            <path d="M0 -24L20.8 -12L20.8 12L0 24L-20.8 12L-20.8 -12Z" stroke="#6600FF" fill="none" stroke-width="1"></path>
        </g>
        <g transform="translate(72 175)">
            <path d="M0 -25L21.7 -12.5L21.7 12.5L0 25L-21.7 12.5L-21.7 -12.5Z" stroke="#6600FF" fill="none" stroke-width="1"></path>
        </g>
        <g transform="translate(258 184)">
            <path d="M0 -24L20.8 -12L20.8 12L0 24L-20.8 12L-20.8 -12Z" stroke="#6600FF" fill="none" stroke-width="1"></path>
        </g>
        <g transform="translate(650 424)">
            <path d="M0 -24L20.8 -12L20.8 12L0 24L-20.8 12L-20.8 -12Z" stroke="#6600FF" fill="none" stroke-width="1"></path>
        </g>
        <g transform="translate(820 369)">
            <path d="M0 -24L20.8 -12L20.8 12L0 24L-20.8 12L-20.8 -12Z" stroke="#6600FF" fill="none" stroke-width="1"></path>
        </g>
        <g transform="translate(201 74)">
            <path d="M0 -25L21.7 -12.5L21.7 12.5L0 25L-21.7 12.5L-21.7 -12.5Z" stroke="#6600FF" fill="none" stroke-width="1"></path>
        </g>
        <g transform="translate(528 312)">
            <path d="M0 -23L19.9 -11.5L19.9 11.5L0 23L-19.9 11.5L-19.9 -11.5Z" stroke="#6600FF" fill="none" stroke-width="1"></path>
        </g>
        <g transform="translate(561 534)">
            <path d="M0 -24L20.8 -12L20.8 12L0 24L-20.8 12L-20.8 -12Z" stroke="#6600FF" fill="none" stroke-width="1"></path>
        </g>
        <g transform="translate(402 176)">
            <path d="M0 -23L19.9 -11.5L19.9 11.5L0 23L-19.9 11.5L-19.9 -11.5Z" stroke="#6600FF" fill="none" stroke-width="1"></path>
        </g>
        <g transform="translate(429 79)">
            <path d="M0 -24L20.8 -12L20.8 12L0 24L-20.8 12L-20.8 -12Z" stroke="#6600FF" fill="none" stroke-width="1"></path>
        </g>
        <g transform="translate(791 7)">
            <path d="M0 -25L21.7 -12.5L21.7 12.5L0 25L-21.7 12.5L-21.7 -12.5Z" stroke="#6600FF" fill="none" stroke-width="1"></path>
        </g>
        <g transform="translate(836 293)">
            <path d="M0 -24L20.8 -12L20.8 12L0 24L-20.8 12L-20.8 -12Z" stroke="#6600FF" fill="none" stroke-width="1"></path>
        </g>
        <g transform="translate(472 6)">
            <path d="M0 -25L21.7 -12.5L21.7 12.5L0 25L-21.7 12.5L-21.7 -12.5Z" stroke="#6600FF" fill="none" stroke-width="1"></path>
        </g>
        <g transform="translate(872 144)">
            <path d="M0 -24L20.8 -12L20.8 12L0 24L-20.8 12L-20.8 -12Z" stroke="#6600FF" fill="none" stroke-width="1"></path>
        </g>
        <g transform="translate(109 390)">
            <path d="M0 -24L20.8 -12L20.8 12L0 24L-20.8 12L-20.8 -12Z" stroke="#6600FF" fill="none" stroke-width="1"></path>
        </g>
        <g transform="translate(217 551)">
            <path d="M0 -24L20.8 -12L20.8 12L0 24L-20.8 12L-20.8 -12Z" stroke="#6600FF" fill="none" stroke-width="1"></path>
        </g>
        <g transform="translate(249 405)">
            <path d="M0 -24L20.8 -12L20.8 12L0 24L-20.8 12L-20.8 -12Z" stroke="#6600FF" fill="none" stroke-width="1"></path>
        </g>
        <g transform="translate(886 34)">
            <path d="M0 -23L19.9 -11.5L19.9 11.5L0 23L-19.9 11.5L-19.9 -11.5Z" stroke="#6600FF" fill="none" stroke-width="1"></path>
        </g>
        <g transform="translate(199 260)">
            <path d="M0 -24L20.8 -12L20.8 12L0 24L-20.8 12L-20.8 -12Z" stroke="#6600FF" fill="none" stroke-width="1"></path>
        </g>
        <g transform="translate(70 233)">
            <path d="M0 -25L21.7 -12.5L21.7 12.5L0 25L-21.7 12.5L-21.7 -12.5Z" stroke="#6600FF" fill="none" stroke-width="1"></path>
        </g>
        <g transform="translate(316 51)">
            <path d="M0 -23L19.9 -11.5L19.9 11.5L0 23L-19.9 11.5L-19.9 -11.5Z" stroke="#6600FF" fill="none" stroke-width="1"></path>
        </g>
        <g transform="translate(459 327)">
            <path d="M0 -24L20.8 -12L20.8 12L0 24L-20.8 12L-20.8 -12Z" stroke="#6600FF" fill="none" stroke-width="1"></path>
        </g>
        <g transform="translate(134 550)">
            <path d="M0 -23L19.9 -11.5L19.9 11.5L0 23L-19.9 11.5L-19.9 -11.5Z" stroke="#6600FF" fill="none" stroke-width="1"></path>
        </g>
        <g transform="translate(774 585)">
            <path d="M0 -23L19.9 -11.5L19.9 11.5L0 23L-19.9 11.5L-19.9 -11.5Z" stroke="#6600FF" fill="none" stroke-width="1"></path>
        </g>
        <g transform="translate(461 145)">
            <path d="M0 -24L20.8 -12L20.8 12L0 24L-20.8 12L-20.8 -12Z" stroke="#6600FF" fill="none" stroke-width="1"></path>
        </g>
        <g transform="translate(425 578)">
            <path d="M0 -24L20.8 -12L20.8 12L0 24L-20.8 12L-20.8 -12Z" stroke="#6600FF" fill="none" stroke-width="1"></path>
        </g>
        <g transform="translate(830 54)">
            <path d="M0 -25L21.7 -12.5L21.7 12.5L0 25L-21.7 12.5L-21.7 -12.5Z" stroke="#6600FF" fill="none" stroke-width="1"></path>
        </g>
        <g transform="translate(628 74)">
            <path d="M0 -23L19.9 -11.5L19.9 11.5L0 23L-19.9 11.5L-19.9 -11.5Z" stroke="#6600FF" fill="none" stroke-width="1"></path>
        </g>
        <g transform="translate(793 434)">
            <path d="M0 -24L20.8 -12L20.8 12L0 24L-20.8 12L-20.8 -12Z" stroke="#6600FF" fill="none" stroke-width="1"></path>
        </g>
        <g transform="translate(398 446)">
            <path d="M0 -25L21.7 -12.5L21.7 12.5L0 25L-21.7 12.5L-21.7 -12.5Z" stroke="#6600FF" fill="none" stroke-width="1"></path>
        </g>
        <g transform="translate(759 210)">
            <path d="M0 -23L19.9 -11.5L19.9 11.5L0 23L-19.9 11.5L-19.9 -11.5Z" stroke="#6600FF" fill="none" stroke-width="1"></path>
        </g>
        <g transform="translate(816 202)">
            <path d="M0 -24L20.8 -12L20.8 12L0 24L-20.8 12L-20.8 -12Z" stroke="#6600FF" fill="none" stroke-width="1"></path>
        </g>
        <g transform="translate(298 593)">
            <path d="M0 -24L20.8 -12L20.8 12L0 24L-20.8 12L-20.8 -12Z" stroke="#6600FF" fill="none" stroke-width="1"></path>
        </g>
        <g transform="translate(747 517)">
            <path d="M0 -23L19.9 -11.5L19.9 11.5L0 23L-19.9 11.5L-19.9 -11.5Z" stroke="#6600FF" fill="none" stroke-width="1"></path>
        </g>
        <g transform="translate(8 443)">
            <path d="M0 -25L21.7 -12.5L21.7 12.5L0 25L-21.7 12.5L-21.7 -12.5Z" stroke="#6600FF" fill="none" stroke-width="1"></path>
        </g>
        <g transform="translate(588 3)">
            <path d="M0 -24L20.8 -12L20.8 12L0 24L-20.8 12L-20.8 -12Z" stroke="#6600FF" fill="none" stroke-width="1"></path>
        </g>
    </g>
</svg>